<svg width="93" height="20" viewBox="0 0 93 20" fill="none" xmlns="http://www.w3.org/2000/svg">
<path d="M30.5077 12.07L33.1253 11.461C33.1514 11.4549 33.1771 11.4708 33.1843 11.4965C33.664 13.288 35.0859 14.1611 37.4725 14.1611C39.3188 14.1611 40.4639 13.6236 40.4639 12.7823C40.4639 11.9875 39.786 11.5204 36.5608 11.0063C32.4709 10.3284 31.1152 9.18337 31.1152 7.2901C31.1152 5.11653 33.3587 3.45703 36.5374 3.45703C39.716 3.45703 42.3878 5.00077 43.0668 7.26437C43.0747 7.29123 43.0588 7.3196 43.032 7.32679L40.4612 8.02584C40.4363 8.03265 40.4105 8.01903 40.4018 7.99445C39.9176 6.64173 38.4106 5.84092 36.5374 5.84092C35.0882 5.84092 34.0131 6.44843 34.0131 7.24319C34.0131 7.82763 34.5976 8.20136 37.7293 8.76235C42.0765 9.58056 43.3618 10.7725 43.3618 12.7823C43.3618 14.9089 40.9545 16.545 37.4725 16.545C33.7079 16.545 31.0062 14.8583 30.4702 12.1286C30.4649 12.1021 30.4819 12.0764 30.508 12.0704L30.5077 12.07Z" fill="white"/>
<path d="M45.042 16.1457V3.85815C45.042 3.83053 45.0643 3.80859 45.0915 3.80859H47.8904C47.918 3.80859 47.94 3.83091 47.94 3.85815V16.1457C47.94 16.1733 47.9176 16.1952 47.8904 16.1952H45.0915C45.0639 16.1952 45.042 16.1729 45.042 16.1457Z" fill="white"/>
<path d="M50.0989 16.1451V3.85755C50.0989 3.82993 50.1212 3.80799 50.1484 3.80799H52.807C52.8346 3.80799 52.8565 3.83031 52.8565 3.85755V4.99994H52.903C53.7443 4.11175 54.9363 3.57422 56.3854 3.57422C57.0709 3.57422 57.6674 3.68581 58.3271 3.88743C58.3521 3.895 58.3672 3.9211 58.3612 3.94682L57.7525 6.49337C57.7461 6.52023 57.7185 6.53649 57.692 6.53006C57.0641 6.37421 56.626 6.28532 55.9883 6.28532C54.1888 6.28532 52.9969 7.50072 52.9969 9.95459V16.1451C52.9969 16.1727 52.9745 16.1946 52.9473 16.1946H50.1484C50.1208 16.1946 50.0989 16.1723 50.0989 16.1451Z" fill="white"/>
<path d="M59.6111 16.1457V3.85815C59.6111 3.83053 59.6334 3.80859 59.6606 3.80859H62.4595C62.4871 3.80859 62.5091 3.83091 62.5091 3.85815V16.1457C62.5091 16.1733 62.4867 16.1952 62.4595 16.1952H59.6606C59.633 16.1952 59.6111 16.1729 59.6111 16.1457Z" fill="white"/>
<path d="M63.9116 10.0008C63.9116 6.30809 66.8096 3.45703 70.8061 3.45703C74.8026 3.45703 77.7005 6.30847 77.7005 10.0008C77.7005 13.6932 74.826 16.5446 70.8061 16.5446C66.7861 16.5446 63.9116 13.7166 63.9116 10.0008ZM74.8025 10.0008C74.8025 7.66383 73.19 6.00434 70.8061 6.00434C68.4222 6.00434 66.8096 7.66383 66.8096 10.0008C66.8096 12.3378 68.4222 13.9973 70.8061 13.9973C73.19 13.9973 74.8025 12.3378 74.8025 10.0008Z" fill="white"/>
<path d="M79.1655 16.1448V3.85725C79.1655 3.82963 79.1879 3.80769 79.2151 3.80769H81.9201C81.9478 3.80769 81.9697 3.83001 81.9697 3.85725V5.09307H82.0166C83.0217 4.04147 84.6108 3.45703 86.2934 3.45703C89.8223 3.45703 92.2062 5.70058 92.2062 8.97267V16.1448C92.2062 16.1724 92.1839 16.1943 92.1567 16.1943H89.3578C89.3302 16.1943 89.3082 16.172 89.3082 16.1448V9.41676C89.3082 7.31355 87.976 6.05124 85.8258 6.05124C83.6757 6.05124 82.0631 7.43006 82.0631 9.44022V16.1448C82.0631 16.1724 82.0408 16.1943 82.0136 16.1943H79.2147C79.1871 16.1943 79.1652 16.172 79.1652 16.1448H79.1655Z" fill="white"/>
<path d="M23.1475 10.3642C23.1475 8.92951 23.1475 8.37405 23.0747 7.67236C22.8932 5.91397 22.2414 4.444 21.137 3.30333C20.0892 2.22122 18.6707 1.38075 16.9207 0.805155C15.32 0.278195 13.4711 0 11.5742 0C9.67737 0 7.82882 0.278195 6.22812 0.804845C4.99421 1.21068 3.92604 1.74879 3.03569 2.40989C2.66548 2.68468 2.32502 2.98022 2.0177 3.29714C1.74509 3.56077 1.45295 3.94523 1.14966 4.43966C0.61062 5.31855 0.721836 6.45673 1.42259 7.20581C1.98301 7.80464 3.14195 8.67207 6.46883 9.4766C8.00355 9.84774 9.72538 10.1622 11.4878 10.4803C13.2673 10.8013 15.0734 11.1275 16.6539 11.5247C16.6295 11.8685 16.5821 12.1046 16.4913 12.1988C16.3497 12.345 16.0913 12.5327 15.7143 12.7208C14.9011 13.126 13.5368 13.5334 11.5749 13.5334C8.72444 13.5334 7.10484 12.6604 6.6578 12.1988C6.51901 12.0553 6.48184 11.5813 6.47193 10.897C6.1389 10.8186 5.81206 10.7372 5.49329 10.6526C5.5001 11.8546 5.55277 12.4612 5.95643 12.8781C6.36691 13.3019 7.07912 13.6951 7.96204 13.9847C9.00976 14.3283 10.2539 14.5101 11.5745 14.5101C12.8952 14.5101 14.139 14.3286 15.1867 13.9847C15.9491 13.7347 16.5839 13.4076 17.0074 13.0498C17.0743 12.9934 17.1366 12.9361 17.1927 12.8781C17.4436 12.6192 17.5588 12.2864 17.6118 11.7836C17.899 11.8673 18.1756 11.954 18.4396 12.0445C18.3841 12.4339 18.2599 12.9193 17.9281 13.3323C17.89 13.3797 17.85 13.4265 17.8064 13.472C16.921 14.3865 14.828 15.3639 11.5749 15.3639C8.32171 15.3639 6.22843 14.3865 5.34304 13.472C4.8517 12.9646 4.73274 12.3044 4.68627 11.8521C4.64569 11.4596 4.63949 11.0036 4.63856 10.4097C4.30708 10.3174 3.70608 10.1018 3.6624 10.0857C3.6624 10.8713 3.66271 11.441 3.71538 11.9522C3.77703 12.5488 3.93998 13.4259 4.64197 14.1508C5.21974 14.7474 6.13022 15.284 7.20645 15.662C8.48745 16.1118 9.93078 16.3398 11.5752 16.3398C13.2196 16.3398 14.6626 16.1118 15.9436 15.662C17.0198 15.284 17.9306 14.7474 18.508 14.1508C18.6496 14.0046 18.7692 13.8518 18.8705 13.6966C19.1558 13.2598 19.2959 12.8026 19.3705 12.4032C19.658 12.529 19.9223 12.6613 20.1599 12.8016C20.0688 13.1824 19.9099 13.6427 19.6252 14.099C19.4885 14.3184 19.3231 14.5368 19.1214 14.745C17.6366 16.2784 14.8057 17.1939 11.5749 17.1939C8.34401 17.1939 5.5128 16.2784 4.02827 14.745C3.03941 13.7236 2.90867 12.4562 2.86561 12.0398C2.80799 11.4816 2.80799 10.7158 2.80799 9.74426C2.4539 9.58813 2.12954 9.42456 1.83338 9.25231C1.83338 11.0581 1.83183 11.5318 1.89441 12.1399C1.94583 12.6396 2.1029 14.1598 3.32659 15.4237C4.99142 17.1434 8.07449 18.1697 11.5745 18.1697C15.0746 18.1697 18.1574 17.1431 19.8222 15.4234C19.9269 15.3153 20.0233 15.205 20.1131 15.0938C20.5632 14.5362 20.8318 13.9522 20.9948 13.4413C21.4331 13.8865 21.4824 14.5644 21.1636 15.0755C20.9337 15.4439 20.6899 15.7598 20.439 16.0142L20.4359 16.0173C20.3327 16.1239 20.2246 16.2273 20.1131 16.3286C19.2116 17.148 18.0381 17.7995 16.6155 18.2673C15.1118 18.7621 13.3686 19.0235 11.5742 19.0235C9.77991 19.0235 8.0367 18.7621 6.53296 18.2676C4.93473 17.7419 3.64939 16.9848 2.71257 16.0176C1.76398 15.038 1.20295 13.7626 1.04433 12.2273C0.977106 11.5755 0.957279 10.3558 0.988259 8.68043C0.940241 8.64202 0.466566 8.27925 0.0672408 7.73463C-0.0160938 8.4202 0.00156444 10.0695 0.00156444 10.0695C0.00156444 10.9391 0.00156445 11.626 0.0740563 12.3276C0.255596 14.086 0.907403 15.556 2.01182 16.6967C3.05954 17.7788 4.47809 18.6192 6.22843 19.1952C7.82944 19.7218 9.67799 20 11.5749 20C13.4717 20 15.3203 19.7218 16.921 19.1952C18.1549 18.7893 19.2231 18.2512 20.1134 17.5901C20.4855 17.3141 20.8272 17.017 21.1357 16.6982C21.4362 16.3931 21.7243 16.021 21.9917 15.5926C22.5431 14.709 22.4387 13.5609 21.7352 12.8035C21.0391 12.0541 19.7224 11.2623 16.68 10.5234C15.1455 10.1507 13.4234 9.83782 11.661 9.51966C9.88152 9.19872 8.07542 8.8725 6.49485 8.47535C6.51932 8.13148 6.56672 7.89541 6.65749 7.80124C6.79907 7.65501 7.05744 7.46728 7.43446 7.27923C8.24767 6.87402 9.61572 6.46664 11.5742 6.46664C14.4411 6.46664 16.0439 7.33964 16.491 7.80124C16.6298 7.94467 16.6669 8.41866 16.6769 9.10299C17.0099 9.18137 17.3367 9.26285 17.6555 9.34742C17.6487 8.14542 17.596 7.53884 17.1924 7.12186C16.7819 6.69806 16.0697 6.30493 15.1867 6.01527C14.139 5.67171 12.8899 5.48986 11.5742 5.48986C10.2585 5.48986 9.00976 5.6714 7.96204 6.01527C7.19963 6.26528 6.56486 6.59242 6.14138 6.95023C6.07446 7.00661 6.01219 7.06393 5.95612 7.12186C5.70518 7.38085 5.58994 7.71356 5.53697 8.21605C5.24979 8.13241 4.97314 8.04566 4.7092 7.95489C4.76465 7.56548 4.88888 7.08004 5.22067 6.66708C5.25877 6.61968 5.29874 6.5729 5.34242 6.52736C6.22781 5.61285 8.33007 4.63545 11.5739 4.63545C14.8178 4.63545 16.9204 5.61285 17.8057 6.52736C18.2971 7.03481 18.416 7.69498 18.4625 8.14728C18.5031 8.53978 18.5093 8.9958 18.5102 9.58968C18.8265 9.67642 19.4427 9.89761 19.4864 9.91372C19.4864 9.12808 19.4861 8.55837 19.4334 8.04721C19.3718 7.45055 19.2088 6.57352 18.5068 5.8486C17.929 5.25194 17.0186 4.71538 15.9423 4.33743C14.6613 3.88761 13.1914 3.6596 11.5739 3.6596C9.95649 3.6596 8.48652 3.88761 7.20552 4.33743C6.12929 4.71538 5.2185 5.25194 4.64104 5.8486C4.49947 5.99483 4.37989 6.14755 4.27858 6.30276C3.99326 6.73957 3.85324 7.19683 3.77857 7.59615C3.4914 7.47038 3.22683 7.33809 2.98922 7.19807C3.0803 6.81733 3.23922 6.35698 3.52392 5.90065C3.66054 5.68131 3.82597 5.46291 4.02765 5.25473C5.51249 3.72125 8.33348 2.80581 11.5742 2.80581C14.815 2.80581 17.6363 3.72125 19.1208 5.25473C20.1097 6.27612 20.2404 7.54349 20.2835 7.95985C20.3411 8.5181 20.3411 9.0968 20.3411 10.2554C20.6952 10.4116 21.0196 10.5751 21.3157 10.7474C21.3157 8.84989 21.3173 8.46791 21.2547 7.85979C21.2033 7.36009 21.0462 5.83993 19.8225 4.57597C18.1577 2.8563 15.0743 1.82995 11.5745 1.82995C8.0748 1.82995 4.99173 2.85661 3.32689 4.57628C3.22218 4.6844 3.12584 4.79468 3.036 4.9059C2.58587 5.46353 2.31728 6.0478 2.15432 6.55834C1.72743 6.11967 1.67136 5.45578 1.98208 4.9502C2.43097 4.21971 2.73178 3.95019 3.03631 3.67106C3.93409 2.84763 5.11131 2.20016 6.53357 1.73237C8.03732 1.23763 9.78053 0.976161 11.5752 0.976161C13.3698 0.976161 15.1127 1.23763 16.6161 1.73206C18.2144 2.25778 19.4997 3.01492 20.4362 3.98209C21.3848 4.96166 21.9458 6.23709 22.1045 7.77243C22.1717 8.42423 22.1766 8.77027 22.1658 11.3233C22.2123 11.3605 22.7191 11.7616 23.0825 12.2663C23.1503 11.6644 23.1481 11.06 23.1481 10.3642H23.1475Z" fill="white"/>
</svg>
